<?xml version="1.0" encoding="UTF-8"?><svg id="Calque_1" xmlns="http://www.w3.org/2000/svg" width="387.38" height="237.9" viewBox="0 0 387.38 237.9"><defs><style>.cls-1{fill:#fff;}</style></defs><g><rect class="cls-1" x="5" y="32.68" width="361.92" height="200.22" rx="39.15" ry="39.15"/><path d="M327.77,37.68c18.83,0,34.15,15.32,34.15,34.15v121.93c0,18.83-15.32,34.15-34.15,34.15H44.15c-18.83,0-34.15-15.32-34.15-34.15V71.83c0-18.83,15.32-34.15,34.15-34.15H327.77m0-10H44.15C19.76,27.68,0,47.45,0,71.83v121.93c0,24.38,19.76,44.15,44.15,44.15H327.77c24.38,0,44.15-19.76,44.15-44.15V71.83c0-24.38-19.76-44.15-44.15-44.15h0Z"/></g><g><path d="M75.94,153.48l4.93-30.96h8.5c2.35,0,4.12,.1,5.31,.29s2.21,.51,3.09,.96c1.58,.8,2.76,1.9,3.54,3.3s1.17,3.07,1.17,5.01-.42,3.72-1.26,5.37c-.84,1.65-1.98,2.92-3.42,3.81-.85,.52-1.85,.89-3,1.11-1.16,.22-2.97,.33-5.44,.33h-3.47l-1.73,10.79h-8.23Zm11-17.36h.78c2.68,0,4.49-.28,5.44-.85,.94-.56,1.42-1.52,1.42-2.88,0-1.14-.41-1.98-1.22-2.51-.81-.53-2.08-.79-3.82-.79h-1.48l-1.12,7.02Z"/><path d="M120.42,154.31c-2.21,0-4.23-.3-6.04-.91-1.81-.61-3.42-1.52-4.83-2.73-1.48-1.3-2.64-2.9-3.47-4.8-.83-1.9-1.25-3.93-1.25-6.07,0-2.31,.36-4.47,1.07-6.48,.71-2.01,1.77-3.83,3.18-5.47,1.65-1.95,3.66-3.44,6.04-4.47,2.38-1.04,4.95-1.55,7.73-1.55,4.65,0,8.41,1.34,11.28,4.02,2.87,2.68,4.3,6.16,4.3,10.45,0,2.3-.36,4.46-1.09,6.48-.73,2.02-1.79,3.85-3.18,5.47-1.71,1.99-3.72,3.5-6.05,4.53-2.33,1.03-4.89,1.54-7.7,1.54Zm1.9-24.91c-2.52,0-4.64,.91-6.34,2.73-1.71,1.82-2.56,4.07-2.56,6.77,0,2.38,.68,4.29,2.04,5.71,1.36,1.42,3.18,2.14,5.45,2.14,2.48,0,4.59-.94,6.32-2.82s2.6-4.18,2.6-6.88c0-2.23-.71-4.06-2.11-5.49-1.41-1.43-3.21-2.15-5.39-2.15Z"/><path d="M149.35,153.48h-8.23l4.89-30.96h8.25c2.48,0,4.33,.09,5.54,.26,1.21,.18,2.26,.48,3.15,.9,1.56,.73,2.75,1.77,3.55,3.1s1.21,2.93,1.21,4.79c0,2.57-.76,4.71-2.29,6.44-1.53,1.73-3.63,2.81-6.31,3.25l7.53,12.22h-9.43l-5.98-11.82-1.86,11.82Zm2.64-16.81h2.6c1.64,0,2.89-.37,3.76-1.12,.87-.75,1.31-1.83,1.31-3.24,0-1.32-.41-2.29-1.23-2.89-.82-.6-2.13-.9-3.93-.9h-1.23l-1.29,8.14Z"/><path d="M174.09,153.48l3.76-23.77h-6.94l1.18-7.19h21.87l-1.18,7.19h-6.62l-3.76,23.77h-8.31Z"/><path d="M193.44,153.48l4.89-30.96h17.89l-1.12,7.11h-9.62l-.82,5.1h9.01l-1.08,6.68h-8.97l-1.9,12.08h-8.27Z"/><path d="M233.45,154.31c-2.21,0-4.23-.3-6.04-.91-1.81-.61-3.42-1.52-4.83-2.73-1.48-1.3-2.64-2.9-3.47-4.8-.83-1.9-1.25-3.93-1.25-6.07,0-2.31,.36-4.47,1.07-6.48,.71-2.01,1.77-3.83,3.18-5.47,1.65-1.95,3.66-3.44,6.04-4.47,2.38-1.04,4.95-1.55,7.73-1.55,4.65,0,8.41,1.34,11.28,4.02,2.87,2.68,4.3,6.16,4.3,10.45,0,2.3-.36,4.46-1.09,6.48-.73,2.02-1.79,3.85-3.18,5.47-1.71,1.99-3.72,3.5-6.05,4.53-2.33,1.03-4.89,1.54-7.7,1.54Zm1.9-24.91c-2.52,0-4.64,.91-6.34,2.73-1.71,1.82-2.56,4.07-2.56,6.77,0,2.38,.68,4.29,2.04,5.71,1.36,1.42,3.18,2.14,5.45,2.14,2.48,0,4.59-.94,6.32-2.82s2.6-4.18,2.6-6.88c0-2.23-.7-4.06-2.11-5.49-1.41-1.43-3.21-2.15-5.39-2.15Z"/><path d="M254.16,153.48l4.89-30.96h8.33l-3.74,23.56h10.24l-1.16,7.4h-18.55Z"/><path d="M276.47,153.48l4.91-30.96h8.44l-4.91,30.96h-8.44Z"/><path d="M308.26,154.31c-2.21,0-4.23-.3-6.04-.91-1.81-.61-3.42-1.52-4.83-2.73-1.48-1.3-2.64-2.9-3.47-4.8-.83-1.9-1.25-3.93-1.25-6.07,0-2.31,.36-4.47,1.07-6.48s1.77-3.83,3.18-5.47c1.65-1.95,3.66-3.44,6.04-4.47s4.95-1.55,7.73-1.55c4.65,0,8.41,1.34,11.28,4.02,2.87,2.68,4.3,6.16,4.3,10.45,0,2.3-.36,4.46-1.09,6.48-.73,2.02-1.79,3.85-3.18,5.47-1.71,1.99-3.72,3.5-6.05,4.53-2.33,1.03-4.89,1.54-7.7,1.54Zm1.9-24.91c-2.52,0-4.64,.91-6.34,2.73s-2.56,4.07-2.56,6.77c0,2.38,.68,4.29,2.04,5.71,1.36,1.42,3.18,2.14,5.45,2.14,2.48,0,4.59-.94,6.32-2.82,1.73-1.88,2.6-4.18,2.6-6.88,0-2.23-.7-4.06-2.11-5.49-1.41-1.43-3.21-2.15-5.39-2.15Z"/></g><path d="M333.44,17.25l1.31-17.25,1.31,17.25c1.39,18.2,15.85,32.67,34.05,34.05l17.25,1.31-17.25,1.31c-18.2,1.39-32.67,15.85-34.05,34.05l-1.31,17.25-1.31-17.25c-1.39-18.2-15.85-32.67-34.05-34.05l-17.25-1.31,17.25-1.31c18.2-1.39,32.67-15.85,34.05-34.05Z"/><path d="M38.64,174.67l.76-9.97,.76,9.97c.8,10.52,9.16,18.89,19.69,19.69l9.97,.76-9.97,.76c-10.52,.8-18.89,9.16-19.69,19.69l-.76,9.97-.76-9.97c-.8-10.52-9.16-18.89-19.69-19.69l-9.97-.76,9.97-.76c10.52-.8,18.89-9.16,19.69-19.69Z"/><g><path d="M154.83,207.04l5.58-35.24h9.61l-5.58,35.24h-9.61Z"/><path d="M203.89,173.45l-1.59,9.73c-1.35-1.17-2.82-2.06-4.41-2.66s-3.24-.9-4.96-.9c-2.92,0-5.33,1.02-7.22,3.06s-2.84,4.64-2.84,7.8c0,2.86,.79,5.07,2.38,6.63s3.84,2.35,6.74,2.35c1.25,0,2.54-.15,3.86-.46s2.72-.76,4.18-1.37l-1.47,9.12c-1.2,.39-2.53,.68-3.98,.88s-3.02,.3-4.71,.3c-5.02,0-9.05-1.56-12.07-4.67-3.03-3.11-4.54-7.25-4.54-12.4,0-2.49,.39-4.86,1.17-7.11s1.92-4.31,3.43-6.15c1.77-2.15,3.97-3.8,6.61-4.94s5.6-1.71,8.87-1.71c1.86,0,3.67,.21,5.42,.63s3.46,1.04,5.13,1.88Z"/><path d="M204.47,207.04l5.58-35.24h9.61l-5.58,35.24h-9.61Z"/></g><g><path d="M31.94,104.21l5.56-35.24h10.76l7.44,17.4c.06,.14,.17,.39,.31,.75,.82,1.91,1.39,3.58,1.71,5.01v-.89c0-.64,.04-1.35,.11-2.13s.18-1.72,.32-2.83l2.72-17.31h9.41l-5.56,35.24h-10.35l-7.9-17.93c-.58-1.3-1.02-2.38-1.31-3.23s-.55-1.7-.76-2.55v.99c0,.64-.03,1.32-.08,2.03s-.16,1.67-.3,2.85l-2.67,17.84h-9.41Z"/><path d="M91.09,105.14c-2.52,0-4.81-.35-6.87-1.04s-3.9-1.73-5.5-3.11c-1.69-1.48-3-3.3-3.95-5.46s-1.42-4.47-1.42-6.91c0-2.63,.41-5.09,1.22-7.38s2.02-4.36,3.62-6.22c1.88-2.21,4.17-3.91,6.87-5.09s5.64-1.77,8.8-1.77c5.3,0,9.58,1.52,12.84,4.57s4.9,7.01,4.9,11.89c0,2.62-.41,5.08-1.24,7.38s-2.03,4.38-3.62,6.22c-1.94,2.26-4.24,3.98-6.88,5.15s-5.57,1.76-8.76,1.76Zm2.17-28.36c-2.87,0-5.28,1.04-7.22,3.11s-2.91,4.64-2.91,7.7c0,2.71,.77,4.88,2.32,6.5s3.61,2.43,6.2,2.43c2.82,0,5.22-1.07,7.2-3.21s2.96-4.75,2.96-7.84c0-2.54-.8-4.62-2.41-6.25s-3.65-2.44-6.14-2.44Z"/><path d="M119.79,68.96h9.46l-2.82,17.69c-.22,1.35-.38,2.4-.46,3.17s-.12,1.43-.12,2.01c0,1.51,.43,2.68,1.28,3.53s2.04,1.26,3.56,1.26c3.63,0,6.2-4.83,7.73-14.49l.05-.34,2.02-12.83h9.46l-3.15,20v.02c-.69,4.33-1.56,7.4-2.6,9.2-1.32,2.29-3.17,4.04-5.57,5.25s-5.23,1.81-8.49,1.81c-4.2,0-7.58-1.01-10.11-3.02s-3.8-4.69-3.8-8.03c0-1,.1-2.33,.29-4s.48-3.74,.87-6.21l2.41-15.02Z"/><path d="M160.37,104.21l-9.39-35.24h10.01l4.33,20.15c.11,.51,.21,1.1,.29,1.75s.15,1.4,.22,2.25c.3-.88,.6-1.68,.88-2.4s.51-1.28,.69-1.7l9.34-20.05h10.5l-18.68,35.24h-8.18Z"/><path d="M195.57,96.36h10.91l-1.23,7.85h-20.32l5.56-35.24h20.32l-1.28,8.14h-10.91l-.89,5.75h10.11l-1.18,7.66h-10.16l-.94,5.85Z"/><path d="M207.99,104.21l17.65-35.24h11.8l7.49,35.24h-9.56l-1.42-6.64h-12.33l-3.37,6.64h-10.26Zm17.16-14.49h7.44l-1.61-8.23c-.16-.82-.28-1.55-.36-2.19s-.13-1.24-.14-1.81c-.34,.96-.65,1.81-.93,2.54s-.5,1.27-.66,1.62l-3.73,8.06Z"/><path d="M251.97,68.96h9.46l-2.82,17.69c-.22,1.35-.38,2.4-.46,3.17s-.12,1.43-.12,2.01c0,1.51,.43,2.68,1.28,3.53s2.04,1.26,3.56,1.26c3.63,0,6.2-4.83,7.73-14.49l.05-.34,2.02-12.83h9.46l-3.15,20v.02c-.69,4.33-1.56,7.4-2.6,9.2-1.32,2.29-3.17,4.04-5.57,5.25s-5.23,1.81-8.49,1.81c-4.2,0-7.58-1.01-10.11-3.02s-3.8-4.69-3.8-8.03c0-1,.1-2.33,.29-4s.48-3.74,.87-6.21l2.41-15.02Z"/></g></svg>